<mxfile host="app.diagrams.net" modified="2024-01-12T17:10:25.358Z" agent="Mozilla/5.0 (Windows NT 10.0; Win64; x64) AppleWebKit/537.36 (KHTML, like Gecko) Chrome/120.0.0.0 Safari/537.36" version="22.1.18" etag="fko1iNFlcp6c7ujKrIoP" type="github">
  <diagram name="Page-1" id="W243Iov71HH3a1qChtqE">
    <mxGraphModel>
      <root>
        <mxCell id="0" />
        <mxCell id="1" parent="0" />
      </root>
    </mxGraphModel>
  </diagram>
</mxfile>
